<svg width="143" height="95" viewBox="0 0 143 95" fill="none" xmlns="http://www.w3.org/2000/svg">
<path d="M103 83L104.621 87.3795L109 89L104.621 90.6205L103 95L101.379 90.6205L97 89L101.379 87.3795L103 83Z" fill="#0066CC"/>
<path d="M19 8L20.0804 10.9196L23 12L20.0804 13.0804L19 16L17.9196 13.0804L15 12L17.9196 10.9196L19 8Z" fill="#0066CC"/>
<path d="M94.5 0L95.1752 1.82477L97 2.5L95.1752 3.17523L94.5 5L93.8248 3.17523L92 2.5L93.8248 1.82477L94.5 0Z" fill="#0066CC"/>
<path d="M31.5 78L32.1752 79.8248L34 80.5L32.1752 81.1752L31.5 83L30.8248 81.1752L29 80.5L30.8248 79.8248L31.5 78Z" fill="#0066CC"/>
<path d="M3.5 46L4.44532 48.5547L7 49.5L4.44532 50.4453L3.5 53L2.55468 50.4453L0 49.5L2.55468 48.5547L3.5 46Z" fill="#0066CC"/>
<path d="M132 51L134.971 58.664L143 61.5L134.971 64.336L132 72L129.029 64.336L121 61.5L129.029 58.664L132 51Z" fill="#0066CC"/>
</svg>
