<svg width="808" height="73" viewBox="0 0 808 73" fill="none" xmlns="http://www.w3.org/2000/svg">
<path d="M770.52 71.6067C790.115 71.6067 806 56.0259 806 36.8061C806 17.5862 790.115 2.00537 770.52 2.00537C750.926 2.00537 735.041 17.5862 735.041 36.8061C735.041 56.0259 750.926 71.6067 770.52 71.6067Z" fill="#E6E7E8"/>
<path d="M741.121 49.354C738.604 43.6862 737.846 37.4169 738.941 31.3291C740.036 25.2412 742.935 19.6047 747.276 15.1234C751.618 10.6421 757.209 7.51469 763.351 6.13177C769.494 4.74885 775.916 5.17171 781.815 7.34754C787.714 9.52337 792.829 13.3557 796.521 18.366C800.213 23.3762 802.318 29.3423 802.573 35.519C802.829 41.6958 801.223 47.8094 797.957 53.0964C794.691 58.3835 789.909 62.6095 784.209 65.2467" stroke="#E47739" stroke-width="10" stroke-miterlimit="10" stroke-linecap="round"/>
<path d="M782.712 44.8071H757.511V45.0873H782.712V44.8071Z" fill="#E47739"/>
<path d="M770.777 44.9517C770.777 45.0817 770.738 45.2088 770.665 45.3169C770.591 45.425 770.486 45.5093 770.364 45.559C770.241 45.6088 770.107 45.6218 769.977 45.5964C769.847 45.571 769.727 45.5084 769.634 45.4165C769.54 45.3246 769.476 45.2075 769.45 45.08C769.424 44.9525 769.438 44.8203 769.488 44.7002C769.539 44.5801 769.625 44.4774 769.735 44.4052C769.845 44.333 769.975 44.2944 770.107 44.2944C770.285 44.2962 770.454 44.366 770.579 44.4889C770.704 44.6118 770.776 44.778 770.777 44.9517Z" fill="#E47739"/>
<path d="M761.178 20.5059H760.494L759.35 18.7739V20.5059H758.666V17.6979H759.35L760.494 19.4379V17.6979H761.178V20.5059ZM763.002 20.5339C762.738 20.5339 762.495 20.4725 762.274 20.3499C762.055 20.2272 761.881 20.0565 761.75 19.8379C761.622 19.6165 761.558 19.3685 761.558 19.0939C761.558 18.8192 761.622 18.5725 761.75 18.3539C761.881 18.1352 762.055 17.9645 762.274 17.8419C762.495 17.7192 762.738 17.6579 763.002 17.6579C763.266 17.6579 763.507 17.7192 763.726 17.8419C763.947 17.9645 764.121 18.1352 764.246 18.3539C764.374 18.5725 764.438 18.8192 764.438 19.0939C764.438 19.3685 764.374 19.6165 764.246 19.8379C764.118 20.0565 763.945 20.2272 763.726 20.3499C763.507 20.4725 763.266 20.5339 763.002 20.5339ZM763.002 19.9099C763.226 19.9099 763.405 19.8352 763.538 19.6859C763.674 19.5365 763.742 19.3392 763.742 19.0939C763.742 18.8459 763.674 18.6485 763.538 18.5019C763.405 18.3525 763.226 18.2779 763.002 18.2779C762.775 18.2779 762.594 18.3512 762.458 18.4979C762.325 18.6445 762.258 18.8432 762.258 19.0939C762.258 19.3419 762.325 19.5405 762.458 19.6899C762.594 19.8365 762.775 19.9099 763.002 19.9099ZM766.251 20.5059L765.667 19.4459H765.503V20.5059H764.819V17.6979H765.967C766.188 17.6979 766.376 17.7365 766.531 17.8139C766.688 17.8912 766.805 17.9979 766.883 18.1339C766.96 18.2672 766.999 18.4165 766.999 18.5819C766.999 18.7685 766.945 18.9352 766.839 19.0819C766.735 19.2285 766.58 19.3325 766.375 19.3939L767.023 20.5059H766.251ZM765.503 18.9619H765.927C766.052 18.9619 766.145 18.9312 766.207 18.8699C766.271 18.8085 766.303 18.7219 766.303 18.6099C766.303 18.5032 766.271 18.4192 766.207 18.3579C766.145 18.2965 766.052 18.2659 765.927 18.2659H765.503V18.9619ZM769.448 17.6979V18.2459H768.704V20.5059H768.02V18.2459H767.276V17.6979H769.448ZM770.475 17.6979V20.5059H769.791V17.6979H770.475ZM770.855 19.0979C770.855 18.8205 770.915 18.5739 771.035 18.3579C771.155 18.1392 771.322 17.9699 771.535 17.8499C771.751 17.7272 771.995 17.6659 772.267 17.6659C772.6 17.6659 772.886 17.7539 773.123 17.9299C773.36 18.1059 773.519 18.3459 773.599 18.6499H772.847C772.791 18.5325 772.711 18.4432 772.607 18.3819C772.506 18.3205 772.39 18.2899 772.259 18.2899C772.048 18.2899 771.878 18.3632 771.747 18.5099C771.616 18.6565 771.551 18.8525 771.551 19.0979C771.551 19.3432 771.616 19.5392 771.747 19.6859C771.878 19.8325 772.048 19.9059 772.259 19.9059C772.39 19.9059 772.506 19.8752 772.607 19.8139C772.711 19.7525 772.791 19.6632 772.847 19.5459H773.599C773.519 19.8499 773.36 20.0899 773.123 20.2659C772.886 20.4392 772.6 20.5259 772.267 20.5259C771.995 20.5259 771.751 20.4659 771.535 20.3459C771.322 20.2232 771.155 20.0539 771.035 19.8379C770.915 19.6219 770.855 19.3752 770.855 19.0979Z" fill="#E47739"/>
<path d="M770.254 29.3982H764.341V32.0176H769.564V35.4109H764.341V38.3017H770.254V41.8781H759.788V25.8218H770.254V29.3982Z" fill="#E47739"/>
<path d="M774.846 29.8626H772.54V25.8218H779.431V41.8595H774.848V29.8626H774.846Z" fill="#E47739"/>
<path d="M678.646 71.618C698.243 71.618 714.13 56.0372 714.13 36.8173C714.13 17.5974 698.243 2.0166 678.646 2.0166C659.048 2.0166 643.161 17.5974 643.161 36.8173C643.161 56.0372 659.048 71.618 678.646 71.618Z" fill="#E6E7E8"/>
<path d="M649.239 49.3683C646.722 43.6993 645.963 37.4284 647.058 31.3388C648.152 25.2493 651.052 19.6111 655.394 15.1285C659.736 10.6458 665.329 7.51728 671.473 6.13374C677.617 4.7502 684.041 5.17292 689.942 7.34912C695.843 9.52531 700.959 13.3585 704.652 18.37C708.345 23.3814 710.45 29.349 710.706 35.5274C710.962 41.7057 709.356 47.821 706.089 53.1095C702.822 58.3979 698.039 62.6251 692.338 65.2631" stroke="#BAA787" stroke-width="10" stroke-miterlimit="10" stroke-linecap="round"/>
<path d="M690.793 44.835H665.613V45.1151H690.793V44.835Z" fill="#BAA787"/>
<path d="M678.868 44.98C678.868 45.11 678.828 45.2371 678.755 45.3452C678.681 45.4533 678.576 45.5376 678.454 45.5873C678.331 45.6371 678.197 45.6501 678.067 45.6247C677.937 45.5994 677.817 45.5368 677.724 45.4448C677.63 45.3529 677.566 45.2358 677.54 45.1083C677.514 44.9808 677.528 44.8486 677.578 44.7285C677.629 44.6084 677.715 44.5057 677.825 44.4335C677.935 44.3613 678.065 44.3228 678.197 44.3228C678.375 44.3245 678.544 44.3944 678.669 44.5172C678.795 44.6401 678.866 44.8063 678.868 44.98Z" fill="#BAA787"/>
<path d="M671.069 18.6978V23.3243H669.759L668.017 20.7353V23.3243H666.706V18.6978H668.016L669.758 21.3152V18.6978H671.069Z" fill="#BAA787"/>
<path d="M673.787 23.3725C673.309 23.3735 672.841 23.2354 672.443 22.9756C672.045 22.7158 671.734 22.346 671.55 21.9131C671.366 21.4801 671.317 21.0033 671.41 20.5431C671.502 20.0829 671.731 19.6598 672.069 19.3275C672.406 18.9951 672.837 18.7684 673.305 18.6759C673.774 18.5835 674.261 18.6295 674.703 18.8081C675.145 18.9867 675.523 19.2899 675.79 19.6793C676.056 20.0688 676.199 20.527 676.2 20.9961C676.207 21.3092 676.149 21.6204 676.031 21.9112C675.912 22.2019 675.735 22.4662 675.509 22.6881C675.284 22.91 675.015 23.085 674.719 23.2026C674.423 23.3202 674.106 23.378 673.787 23.3725ZM673.787 22.1745C674.032 22.2003 674.278 22.1527 674.494 22.0379C674.711 21.9231 674.886 21.7465 674.998 21.5317C675.11 21.3168 675.152 21.0738 675.12 20.8347C675.087 20.5956 674.982 20.3718 674.817 20.1929C674.652 20.014 674.436 19.8885 674.196 19.8329C673.957 19.7774 673.706 19.7945 673.477 19.8819C673.248 19.9693 673.051 20.1229 672.913 20.3224C672.775 20.5219 672.702 20.7578 672.703 20.999C672.684 21.1484 672.697 21.3002 672.743 21.444C672.789 21.5878 672.866 21.7202 672.969 21.832C673.072 21.9438 673.199 22.0324 673.34 22.0917C673.481 22.151 673.634 22.1795 673.787 22.1755V22.1745Z" fill="#BAA787"/>
<path d="M678.553 18.6978C679.724 18.6978 680.315 19.355 680.315 20.1848C680.324 20.4905 680.227 20.7901 680.039 21.0342C679.851 21.2784 679.584 21.4524 679.282 21.5278L680.345 23.3341H678.878L677.942 21.6247H677.805V23.3341H676.494V18.7075H678.553V18.6978ZM678.453 19.7694H677.803V20.7353H678.453C678.807 20.7353 678.984 20.5619 678.984 20.2523C678.988 20.1846 678.977 20.1167 678.952 20.0536C678.926 19.9905 678.886 19.9338 678.836 19.8876C678.785 19.8414 678.724 19.8068 678.658 19.7864C678.592 19.7659 678.522 19.7601 678.454 19.7694H678.453Z" fill="#BAA787"/>
<path d="M680.354 18.6978H684.175V19.7214H682.915V23.3243H681.596V19.7214H680.354V18.6978Z" fill="#BAA787"/>
<path d="M684.352 18.6978H685.661V23.3243H684.352V18.6978Z" fill="#BAA787"/>
<path d="M688.302 18.65C688.827 18.6205 689.346 18.7782 689.762 19.0941C690.178 19.41 690.464 19.8629 690.567 20.3692H689.159C689.085 20.2051 688.963 20.0661 688.809 19.9699C688.654 19.8736 688.474 19.8244 688.292 19.8284C687.692 19.8284 687.293 20.2918 687.293 20.9971C687.293 21.7024 687.686 22.1726 688.292 22.1726C688.474 22.1766 688.654 22.1274 688.809 22.0311C688.963 21.9349 689.085 21.7959 689.159 21.6318H690.567C690.465 22.1388 690.18 22.5925 689.763 22.9087C689.347 23.2248 688.827 23.382 688.302 23.351C687.666 23.351 687.056 23.1033 686.607 22.6624C686.157 22.2215 685.905 21.6235 685.905 21C685.905 20.3765 686.157 19.7785 686.607 19.3376C687.056 18.8967 687.666 18.649 688.302 18.649V18.65Z" fill="#BAA787"/>
<path d="M675.5 41.8119H667.701V26.3481H675.254C678.45 26.3481 680.414 27.797 680.414 30.3566C680.453 31.1525 680.209 31.9369 679.725 32.5762C679.24 33.2155 678.544 33.6701 677.756 33.8625C678.621 34.0439 679.395 34.5153 679.945 35.1956C680.495 35.876 680.786 36.7228 680.769 37.5908C680.769 40.2083 678.877 41.8119 675.5 41.8119ZM674.288 29.763H672.072V32.4774H674.292C675.366 32.4774 675.947 32.0425 675.947 31.1442C675.943 30.2312 675.362 29.7679 674.292 29.7679L674.288 29.763ZM674.604 35.5298H672.073V38.3402H674.624C675.716 38.3402 676.279 37.9053 676.279 36.9786C676.279 36.0519 675.678 35.5337 674.604 35.5337V35.5298Z" fill="#BAA787"/>
<path d="M684.145 29.8161H681.841V25.7783H688.724V41.8023H684.145V29.8161Z" fill="#BAA787"/>
<path d="M586.811 71.618C606.433 71.618 622.34 56.0372 622.34 36.8173C622.34 17.5974 606.433 2.0166 586.811 2.0166C567.188 2.0166 551.281 17.5974 551.281 36.8173C551.281 56.0372 567.188 71.618 586.811 71.618Z" fill="#E6E7E8"/>
<path d="M557.367 49.3634C554.841 43.6874 554.076 37.407 555.168 31.307C556.26 25.207 559.16 19.5578 563.506 15.0652C567.852 10.5726 573.452 7.43574 579.605 6.04659C585.758 4.65743 592.192 5.07756 598.104 7.25447C604.015 9.43139 609.141 13.2686 612.842 18.2866C616.542 23.3047 618.653 29.2811 618.911 35.4693C619.169 41.6574 617.562 47.7828 614.291 53.0803C611.02 58.3778 606.23 62.6125 600.52 65.2552" stroke="#E05D56" stroke-width="10" stroke-miterlimit="10" stroke-linecap="round"/>
<path d="M598.972 44.8008H573.761V45.0809H598.972V44.8008Z" fill="#E05D56"/>
<path d="M587.033 44.9454C587.033 45.0754 586.994 45.2025 586.92 45.3106C586.846 45.4187 586.742 45.5029 586.619 45.5527C586.497 45.6024 586.362 45.6154 586.232 45.5901C586.102 45.5647 585.983 45.5021 585.889 45.4102C585.795 45.3183 585.731 45.2011 585.706 45.0736C585.68 44.9461 585.693 44.814 585.744 44.6938C585.794 44.5737 585.88 44.4711 585.99 44.3988C586.101 44.3266 586.23 44.2881 586.363 44.2881C586.54 44.2899 586.709 44.3597 586.835 44.4826C586.96 44.6055 587.031 44.7716 587.033 44.9454Z" fill="#E05D56"/>
<path d="M579.224 18.814V23.4464H577.912L576.167 20.8544V23.4464H574.856V18.814H576.167L577.912 21.4344V18.814H579.224Z" fill="#E05D56"/>
<path d="M581.945 23.4946C581.467 23.4956 580.998 23.3573 580.6 23.0972C580.201 22.8371 579.89 22.4668 579.706 22.0333C579.522 21.5998 579.473 21.1225 579.565 20.6617C579.658 20.2009 579.887 19.7773 580.225 19.4445C580.563 19.1118 580.994 18.8848 581.463 18.7922C581.933 18.6996 582.419 18.7457 582.862 18.9245C583.305 19.1033 583.684 19.4069 583.95 19.7968C584.217 20.1868 584.36 20.6456 584.361 21.1152C584.368 21.4287 584.31 21.7403 584.192 22.0314C584.073 22.3225 583.895 22.5871 583.67 22.8093C583.444 23.0315 583.175 23.2067 582.879 23.3245C582.582 23.4422 582.265 23.5001 581.945 23.4946ZM581.945 22.2956C582.19 22.3214 582.437 22.2737 582.653 22.1587C582.87 22.0438 583.046 21.8671 583.157 21.652C583.269 21.4369 583.311 21.1935 583.279 20.9542C583.247 20.7149 583.141 20.491 582.976 20.312C582.81 20.133 582.594 20.0074 582.354 19.952C582.115 19.8965 581.864 19.9137 581.634 20.0013C581.405 20.089 581.208 20.2429 581.07 20.4427C580.932 20.6425 580.859 20.8787 580.861 21.1201C580.842 21.2695 580.856 21.4211 580.902 21.5647C580.948 21.7083 581.025 21.8405 581.128 21.9521C581.231 22.0637 581.357 22.1522 581.498 22.2115C581.639 22.2708 581.792 22.2995 581.945 22.2956Z" fill="#E05D56"/>
<path d="M586.717 18.8145C587.89 18.8145 588.481 19.4718 588.481 20.3034C588.49 20.6095 588.392 20.9094 588.204 21.1537C588.016 21.398 587.748 21.5721 587.446 21.6474L588.51 23.4557H587.041L586.104 21.7444H585.967V23.4557H584.656V18.8242H586.717V18.8145ZM586.617 19.892H585.966V20.8588H586.617C586.971 20.8588 587.149 20.6845 587.149 20.3749C587.153 20.3072 587.142 20.2394 587.116 20.1764C587.09 20.1134 587.051 20.0568 587 20.0106C586.949 19.9644 586.889 19.9298 586.823 19.9093C586.757 19.8888 586.687 19.8829 586.619 19.892H586.617Z" fill="#E05D56"/>
<path d="M588.521 18.8145H592.346V19.8391H591.084V23.4459H589.763V19.8391H588.521V18.8145Z" fill="#E05D56"/>
<path d="M592.524 18.8145H593.835V23.4469H592.524V18.8145Z" fill="#E05D56"/>
<path d="M596.478 18.7661C597.004 18.7366 597.523 18.8945 597.94 19.2107C598.356 19.527 598.643 19.9804 598.746 20.4873H597.335C597.262 20.3229 597.14 20.1837 596.985 20.0873C596.831 19.9909 596.651 19.9415 596.468 19.9455C595.868 19.9455 595.469 20.4099 595.469 21.1162C595.469 21.8224 595.863 22.2917 596.468 22.2917C596.651 22.2957 596.831 22.2463 596.985 22.1499C597.14 22.0535 597.262 21.9143 597.335 21.7499H598.746C598.644 22.2575 598.358 22.7117 597.941 23.0282C597.524 23.3448 597.004 23.5021 596.478 23.4711C595.841 23.4711 595.23 23.223 594.78 22.7813C594.33 22.3397 594.077 21.7407 594.077 21.1162C594.077 20.4916 594.33 19.8926 594.78 19.451C595.23 19.0093 595.841 18.7612 596.478 18.7612V18.7661Z" fill="#E05D56"/>
<path d="M584.193 39.4903H578.918L578.119 41.8696H573.781L579.194 27.2954H583.956L589.349 41.8696H584.981L584.193 39.4903ZM581.55 31.6761L579.972 36.3859H583.157L581.55 31.6761Z" fill="#E05D56"/>
<path d="M598.942 26.7734V29.771L593.884 41.8698H589.647L594.754 30.2451H588.748V26.7734H598.942Z" fill="#E05D56"/>
<path d="M495.875 71.618C515.467 71.618 531.349 56.0372 531.349 36.8173C531.349 17.5974 515.467 2.0166 495.875 2.0166C476.283 2.0166 460.4 17.5974 460.4 36.8173C460.4 56.0372 476.283 71.618 495.875 71.618Z" fill="#E6E7E8"/>
<path d="M466.479 49.3678C463.963 43.7004 463.206 37.4318 464.301 31.3446C465.396 25.2575 468.295 19.6217 472.636 15.1411C476.977 10.6605 482.568 7.53376 488.71 6.15132C494.852 4.76888 501.274 5.19204 507.172 7.36794C513.07 9.54384 518.185 13.376 521.876 18.3859C525.567 23.3958 527.671 29.3614 527.927 35.5375C528.182 41.7136 526.576 47.8266 523.31 53.113C520.044 58.3993 515.263 62.6248 509.563 65.2616" stroke="#45B4A9" stroke-width="10" stroke-miterlimit="10" stroke-linecap="round"/>
<path d="M508.038 44.8311H482.855V45.1112H508.038V44.8311Z" fill="#45B4A9"/>
<path d="M496.111 44.9757C496.111 45.1057 496.072 45.2327 495.999 45.3408C495.925 45.4489 495.82 45.5332 495.698 45.5829C495.575 45.6327 495.441 45.6457 495.311 45.6203C495.181 45.595 495.061 45.5324 494.968 45.4405C494.874 45.3485 494.81 45.2314 494.784 45.1039C494.758 44.9764 494.772 44.8442 494.822 44.7241C494.873 44.604 494.959 44.5013 495.069 44.4291C495.179 44.3569 495.309 44.3184 495.441 44.3184C495.619 44.3201 495.788 44.39 495.913 44.5129C496.038 44.6357 496.11 44.8019 496.111 44.9757Z" fill="#45B4A9"/>
<path d="M488.312 19.5684V24.1959H487.001L485.259 21.6069V24.1959H483.948V19.5684H485.259L487.001 22.1858V19.5684H488.312Z" fill="#45B4A9"/>
<path d="M491.029 24.2441C490.551 24.2451 490.083 24.1069 489.685 23.8472C489.287 23.5874 488.976 23.2176 488.792 22.7846C488.608 22.3516 488.559 21.8749 488.652 21.4147C488.744 20.9544 488.973 20.5314 489.311 20.1991C489.648 19.8667 490.079 19.64 490.547 19.5475C491.016 19.4551 491.503 19.501 491.945 19.6796C492.387 19.8582 492.765 20.1614 493.032 20.5509C493.298 20.9404 493.441 21.3986 493.442 21.8677C493.449 22.1808 493.391 22.492 493.272 22.7827C493.154 23.0735 492.976 23.3377 492.751 23.5596C492.526 23.7815 492.257 23.9566 491.961 24.0742C491.665 24.1918 491.348 24.2496 491.029 24.2441ZM491.029 23.0461C491.273 23.0719 491.52 23.0242 491.736 22.9094C491.953 22.7946 492.128 22.6181 492.24 22.4033C492.352 22.1884 492.394 21.9453 492.362 21.7063C492.329 21.4672 492.224 21.2434 492.059 21.0645C491.894 20.8856 491.678 20.7601 491.438 20.7045C491.199 20.649 490.948 20.666 490.719 20.7534C490.49 20.8408 490.293 20.9945 490.155 21.194C490.017 21.3935 489.944 21.6294 489.945 21.8706C489.926 22.0199 489.94 22.1717 489.986 22.3153C490.031 22.459 490.109 22.5912 490.211 22.7029C490.314 22.8146 490.441 22.9031 490.582 22.9623C490.723 23.0216 490.876 23.0501 491.029 23.0461Z" fill="#45B4A9"/>
<path d="M495.796 19.5688C496.968 19.5688 497.558 20.2261 497.558 21.0568C497.567 21.3625 497.469 21.6621 497.282 21.9061C497.094 22.1502 496.827 22.3243 496.525 22.3998L497.588 24.2062H496.121L495.185 22.4968H495.048V24.2062H493.737V19.5786H495.796V19.5688ZM495.696 20.6415H495.046V21.6074H495.696C496.05 21.6074 496.228 21.433 496.228 21.1244C496.232 21.0566 496.221 20.9888 496.196 20.9257C496.17 20.8626 496.13 20.8059 496.08 20.7597C496.029 20.7135 495.968 20.6789 495.902 20.6584C495.836 20.638 495.766 20.6322 495.698 20.6415H495.696Z" fill="#45B4A9"/>
<path d="M497.598 19.5684H501.419V20.592H500.159V24.1949H498.84V20.592H497.598V19.5684Z" fill="#45B4A9"/>
<path d="M501.597 19.5684H502.907V24.1959H501.597V19.5684Z" fill="#45B4A9"/>
<path d="M505.547 19.5206C506.072 19.4911 506.591 19.6488 507.007 19.9647C507.423 20.2806 507.709 20.7335 507.812 21.2398H506.403C506.33 21.0757 506.208 20.9367 506.054 20.8405C505.899 20.7442 505.719 20.695 505.537 20.699C504.937 20.699 504.538 21.1624 504.538 21.8677C504.538 22.573 504.931 23.0432 505.537 23.0432C505.719 23.0472 505.899 22.998 506.054 22.9017C506.208 22.8055 506.33 22.6665 506.403 22.5024H507.812C507.71 23.0094 507.425 23.4631 507.008 23.7793C506.592 24.0954 506.072 24.2526 505.547 24.2216C504.911 24.2216 504.301 23.9739 503.852 23.533C503.402 23.0921 503.15 22.4941 503.15 21.8706C503.15 21.2471 503.402 20.6491 503.852 20.2082C504.301 19.7673 504.911 19.5196 505.547 19.5196V19.5206Z" fill="#45B4A9"/>
<path d="M493.166 39.4493H487.956L487.168 41.8003H482.874L488.232 27.3877H492.94L498.278 41.8003H493.96L493.166 39.4493ZM490.557 31.7214L488.991 36.3871H492.143L490.557 31.7214Z" fill="#45B4A9"/>
<path d="M504.405 31.1508C504.218 30.2692 503.844 29.798 502.948 29.798C501.589 29.798 501.195 31.0833 501.175 33.5205C501.516 33.0704 501.965 32.7098 502.482 32.4705C502.999 32.2313 503.568 32.1209 504.139 32.149C506.749 32.149 508.6 33.7624 508.6 36.8922C508.6 39.9161 506.621 41.9057 503.301 41.9057C498.672 41.9057 497.55 38.6789 497.55 34.3413C497.55 29.0516 499.195 26.5742 503.173 26.5742C503.815 26.5292 504.459 26.6141 505.066 26.8237C505.672 27.0333 506.228 27.3631 506.699 27.7926C507.171 28.222 507.546 28.742 507.804 29.32C508.061 29.8981 508.195 30.522 508.196 31.1528L504.405 31.1508ZM501.46 36.8324C501.434 37.0555 501.459 37.2814 501.535 37.4934C501.61 37.7054 501.734 37.8979 501.895 38.0567C502.057 38.2154 502.253 38.3363 502.47 38.4103C502.686 38.4843 502.916 38.5095 503.143 38.484C503.363 38.5031 503.583 38.4742 503.79 38.3993C503.996 38.3244 504.183 38.2054 504.336 38.0509C504.49 37.8965 504.607 37.7105 504.678 37.5063C504.749 37.3022 504.773 37.085 504.748 36.8706C504.771 36.655 504.745 36.4372 504.671 36.2327C504.598 36.0282 504.479 35.8423 504.324 35.688C504.169 35.5338 503.98 35.4152 503.773 35.3408C503.565 35.2663 503.344 35.2378 503.124 35.2572C502.905 35.2373 502.685 35.2639 502.478 35.3351C502.27 35.4064 502.081 35.5206 501.924 35.6701C501.766 35.8195 501.642 36.0006 501.562 36.2011C501.482 36.4015 501.447 36.6165 501.46 36.8315V36.8324Z" fill="#45B4A9"/>
<path d="M404.015 71.618C423.618 71.618 439.51 56.0372 439.51 36.8173C439.51 17.5974 423.618 2.0166 404.015 2.0166C384.412 2.0166 368.521 17.5974 368.521 36.8173C368.521 56.0372 384.412 71.618 404.015 71.618Z" fill="#E6E7E8"/>
<path d="M374.602 49.3653C372.083 43.6949 371.323 37.4221 372.416 31.3305C373.51 25.2388 376.41 19.5983 380.753 15.1135C385.096 10.6286 390.689 7.49831 396.835 6.11347C402.981 4.72864 409.407 5.15068 415.31 7.3269C421.213 9.50312 426.331 13.337 430.026 18.3498C433.721 23.3625 435.827 29.3318 436.084 35.5122C436.34 41.6925 434.734 47.8099 431.466 53.1002C428.198 58.3904 423.414 62.6191 417.711 65.2581" stroke="#E9C248" stroke-width="10" stroke-miterlimit="10" stroke-linecap="round"/>
<path d="M416.185 44.8154H390.988V45.0956H416.185V44.8154Z" fill="#E9C248"/>
<path d="M404.252 44.96C404.252 45.09 404.213 45.2171 404.139 45.3252C404.066 45.4333 403.961 45.5176 403.838 45.5673C403.716 45.6171 403.581 45.6301 403.451 45.6047C403.321 45.5793 403.202 45.5168 403.108 45.4248C403.014 45.3329 402.951 45.2158 402.925 45.0883C402.899 44.9608 402.912 44.8286 402.963 44.7085C403.014 44.5884 403.099 44.4857 403.21 44.4135C403.32 44.3413 403.449 44.3027 403.582 44.3027C403.759 44.3045 403.929 44.3743 404.054 44.4972C404.179 44.6201 404.25 44.7863 404.252 44.96Z" fill="#E9C248"/>
<path d="M396.447 18.9023V23.5319H395.136L393.393 20.9418V23.5319H392.081V18.9023H393.392L395.135 21.5217V18.9023H396.447Z" fill="#E9C248"/>
<path d="M399.166 23.581C398.688 23.582 398.22 23.4438 397.821 23.1839C397.423 22.924 397.112 22.5541 396.928 22.1209C396.744 21.6878 396.695 21.2108 396.788 20.7504C396.88 20.29 397.11 19.8668 397.447 19.5343C397.785 19.2018 398.215 18.975 398.684 18.8825C399.153 18.79 399.64 18.836 400.082 19.0147C400.524 19.1933 400.903 19.4967 401.169 19.8863C401.436 20.2759 401.579 20.7343 401.58 21.2036C401.587 21.5168 401.529 21.8281 401.41 22.1189C401.291 22.4097 401.114 22.674 400.889 22.896C400.663 23.1179 400.394 23.293 400.098 23.4107C399.803 23.5285 399.485 23.5864 399.166 23.581ZM399.166 22.382C399.411 22.408 399.658 22.3605 399.874 22.2457C400.091 22.1309 400.267 21.9542 400.379 21.7391C400.49 21.5241 400.533 21.2808 400.501 21.0414C400.468 20.8021 400.363 20.578 400.198 20.3989C400.033 20.2198 399.816 20.0942 399.576 20.0386C399.337 19.983 399.086 20.0002 398.856 20.0877C398.627 20.1753 398.43 20.3292 398.292 20.529C398.154 20.7288 398.081 20.9651 398.082 21.2065C398.063 21.3558 398.077 21.5075 398.123 21.6511C398.169 21.7947 398.246 21.9268 398.349 22.0385C398.452 22.1501 398.578 22.2386 398.719 22.2979C398.86 22.3572 399.013 22.3859 399.166 22.382Z" fill="#E9C248"/>
<path d="M403.936 18.9023C405.108 18.9023 405.699 19.5596 405.699 20.3913C405.708 20.6973 405.61 20.9972 405.422 21.2415C405.234 21.4858 404.967 21.6599 404.665 21.7353L405.729 23.5426H404.261L403.325 21.8323H403.187V23.5426H401.876V18.9121H403.936V18.9023ZM403.836 19.9799H403.185V20.9467H403.836C404.19 20.9467 404.368 20.7724 404.368 20.4638C404.372 20.3959 404.361 20.3279 404.336 20.2647C404.31 20.2015 404.271 20.1447 404.22 20.0984C404.169 20.052 404.109 20.0174 404.042 19.9969C403.976 19.9764 403.906 19.9706 403.838 19.9799H403.836Z" fill="#E9C248"/>
<path d="M405.74 18.9023H409.563V19.927H408.301V23.5319H406.981V19.927H405.74V18.9023Z" fill="#E9C248"/>
<path d="M409.74 18.9023H411.05V23.5319H409.74V18.9023Z" fill="#E9C248"/>
<path d="M413.691 18.855C414.217 18.8254 414.736 18.9832 415.153 19.2993C415.569 19.6154 415.855 20.0685 415.958 20.5751H414.549C414.475 20.4109 414.354 20.2717 414.199 20.1753C414.045 20.0789 413.865 20.0295 413.682 20.0334C413.083 20.0334 412.683 20.4978 412.683 21.2031C412.683 21.9084 413.078 22.3786 413.682 22.3786C413.865 22.3825 414.045 22.3331 414.199 22.2367C414.354 22.1403 414.475 22.0011 414.549 21.8368H415.958C415.857 22.3443 415.571 22.7983 415.154 23.1147C414.737 23.4311 414.217 23.5882 413.691 23.557C413.055 23.557 412.444 23.309 411.995 22.8677C411.545 22.4263 411.292 21.8277 411.292 21.2035C411.292 20.5794 411.545 19.9808 411.995 19.5394C412.444 19.098 413.055 18.8501 413.691 18.8501V18.855Z" fill="#E9C248"/>
<path d="M401.227 39.5487H396.043L395.255 41.888H390.988L396.319 27.5537H401L406.311 41.888H402.025L401.227 39.5487ZM398.63 31.8649L397.083 36.4944H400.217L398.63 31.8649Z" fill="#E9C248"/>
<path d="M415.821 27.0215V30.5402H409.603V32.7932C410.317 32.1761 411.249 31.857 412.199 31.9037C415.333 31.9037 416.654 34.2626 416.654 36.737C416.654 39.9265 414.722 41.8788 411.411 41.8788C407.893 41.8788 405.854 39.9647 405.834 37.3071H409.786C409.802 37.4768 409.853 37.6416 409.935 37.7919C410.017 37.9423 410.129 38.0752 410.263 38.183C410.398 38.2909 410.553 38.3714 410.719 38.4202C410.886 38.4689 411.061 38.4848 411.234 38.467C412.248 38.467 412.712 37.7127 412.712 36.6792C412.712 35.6017 412.15 35.0551 411.175 35.0551C410.874 35.0253 410.573 35.1069 410.33 35.2841C410.088 35.4612 409.922 35.7209 409.864 36.0121H405.913V27.0313L415.826 27.0215H415.821Z" fill="#E9C248"/>
<path d="M312.12 71.9725C331.715 71.9725 347.6 56.3917 347.6 37.1718C347.6 17.9519 331.715 2.37109 312.12 2.37109C292.525 2.37109 276.641 17.9519 276.641 37.1718C276.641 56.3917 292.525 71.9725 312.12 71.9725Z" fill="#E6E7E8"/>
<path d="M282.482 49.6829C279.95 43.9796 279.188 37.671 280.289 31.545C281.391 25.419 284.308 19.7471 288.677 15.2376C293.045 10.7281 298.671 7.581 304.852 6.18924C311.034 4.79747 317.496 5.22277 323.432 7.412C329.368 9.60123 334.515 13.4574 338.23 18.4988C341.946 23.5403 344.064 29.5436 344.322 35.7591C344.579 41.9745 342.964 48.1267 339.678 53.4471C336.392 58.7675 331.58 63.0204 325.845 65.6746" stroke="#6D335A" stroke-width="10" stroke-miterlimit="10" stroke-linecap="round"/>
<path d="M324.304 45.1211H298.946V45.4032H324.304V45.1211Z" fill="#6D335A"/>
<path d="M312.295 45.2667C312.295 45.3975 312.255 45.5253 312.181 45.634C312.107 45.7428 312.002 45.8275 311.878 45.8776C311.755 45.9276 311.62 45.9407 311.489 45.9152C311.358 45.8897 311.238 45.8267 311.144 45.7342C311.049 45.6418 310.985 45.5239 310.959 45.3957C310.933 45.2674 310.947 45.1345 310.998 45.0136C311.049 44.8928 311.135 44.7895 311.246 44.7169C311.357 44.6442 311.487 44.6055 311.62 44.6055C311.799 44.6075 311.969 44.6778 312.095 44.8014C312.221 44.9249 312.292 45.0919 312.295 45.2667Z" fill="#6D335A"/>
<path d="M304.441 19.3325V23.9924H303.121L301.366 21.3857V23.9924H300.046V19.3325H301.366L303.121 21.9686V19.3325H304.441Z" fill="#6D335A"/>
<path d="M307.177 24.0406C306.696 24.0416 306.225 23.9025 305.824 23.6408C305.423 23.3792 305.11 23.0069 304.925 22.5708C304.739 22.1348 304.69 21.6547 304.783 21.1913C304.876 20.7278 305.107 20.3018 305.447 19.9671C305.787 19.6324 306.22 19.4041 306.692 19.311C307.164 19.2179 307.654 19.2642 308.099 19.4441C308.545 19.6239 308.925 19.9293 309.194 20.3215C309.462 20.7137 309.606 21.1751 309.607 21.6475C309.614 21.9628 309.556 22.2762 309.436 22.569C309.317 22.8617 309.138 23.1278 308.911 23.3513C308.684 23.5747 308.414 23.7509 308.116 23.8694C307.818 23.9879 307.499 24.0461 307.177 24.0406ZM307.177 22.8347C307.423 22.8609 307.672 22.8132 307.89 22.6978C308.108 22.5824 308.285 22.4049 308.397 22.1887C308.51 21.9724 308.553 21.7277 308.521 21.4869C308.489 21.2461 308.383 21.0206 308.217 20.8401C308.051 20.6597 307.834 20.5329 307.593 20.4765C307.352 20.4201 307.099 20.4368 306.868 20.5243C306.637 20.6118 306.439 20.7661 306.299 20.9666C306.16 21.1672 306.086 21.4046 306.087 21.6475C306.066 21.7981 306.08 21.9512 306.126 22.0962C306.172 22.2412 306.249 22.3748 306.353 22.4876C306.457 22.6004 306.584 22.6899 306.726 22.7498C306.869 22.8097 307.022 22.8387 307.177 22.8347Z" fill="#6D335A"/>
<path d="M311.978 19.3325C313.158 19.3325 313.753 19.9937 313.753 20.8303C313.762 21.1382 313.664 21.4398 313.475 21.6855C313.285 21.9312 313.016 22.1064 312.712 22.1821L313.783 24.0012H312.301L311.36 22.2791H311.221V24.0012H309.905V19.3423H311.977L311.978 19.3325ZM311.878 20.4101H311.224V21.3828H311.878C312.234 21.3828 312.413 21.2074 312.413 20.893C312.417 20.8249 312.406 20.7567 312.38 20.6935C312.353 20.6303 312.313 20.5735 312.262 20.5273C312.211 20.4812 312.15 20.4467 312.083 20.4264C312.017 20.4061 311.947 20.4005 311.878 20.4101Z" fill="#6D335A"/>
<path d="M313.792 19.333H317.64V20.3645H316.371V23.989H315.041V20.3645H313.792V19.333Z" fill="#6D335A"/>
<path d="M317.818 19.3325H319.137V23.9924H317.818V19.3325Z" fill="#6D335A"/>
<path d="M321.795 19.2838C322.324 19.254 322.847 19.4129 323.266 19.7312C323.685 20.0495 323.973 20.5057 324.076 21.0157H322.658C322.584 20.8504 322.461 20.7104 322.306 20.6135C322.151 20.5165 321.969 20.467 321.785 20.4711C321.18 20.4711 320.787 20.9383 320.787 21.6466C320.787 22.3548 321.186 22.8338 321.785 22.8338C321.969 22.8379 322.151 22.7884 322.306 22.6914C322.461 22.5945 322.584 22.4545 322.658 22.2892H324.076C323.974 22.7999 323.687 23.257 323.267 23.5755C322.848 23.894 322.325 24.0524 321.795 24.0211C321.155 24.0211 320.541 23.7715 320.088 23.3273C319.635 22.8831 319.38 22.2807 319.38 21.6525C319.38 21.0243 319.635 20.4218 320.088 19.9776C320.541 19.5334 321.155 19.2838 321.795 19.2838Z" fill="#6D335A"/>
<path d="M308.566 39.4886H303.472L302.698 41.7847H298.479L303.725 27.6699H308.337L313.553 41.7847H309.329L308.566 39.4886ZM306.007 31.9301L304.48 36.492H307.567L306.007 31.9301Z" fill="#6D335A"/>
<path d="M319.742 39.4003H313.127V36.1608L319.395 27.3867H323.778V35.9865H325.355V39.3915H323.778V41.7944H319.731L319.741 39.4013L319.742 39.4003ZM320.05 35.9855V31.8027L317.234 35.9855H320.05Z" fill="#6D335A"/>
<path d="M220.221 71.618C239.806 71.618 255.682 56.0372 255.682 36.8173C255.682 17.5974 239.806 2.0166 220.221 2.0166C200.637 2.0166 184.761 17.5974 184.761 36.8173C184.761 56.0372 200.637 71.618 220.221 71.618Z" fill="#E6E7E8"/>
<path d="M190.837 49.3695C188.324 43.7038 187.568 37.4373 188.663 31.3527C189.759 25.2681 192.658 19.6351 196.999 15.157C201.339 10.679 206.928 7.55445 213.069 6.17365C219.209 4.79286 225.627 5.21699 231.523 7.39309C237.419 9.56918 242.53 13.4008 246.219 18.4094C249.908 23.418 252.011 29.3816 252.265 35.5554C252.519 41.7292 250.913 47.8395 247.647 53.1233C244.382 58.4072 239.601 62.6302 233.904 65.2652" stroke="#00844D" stroke-width="10" stroke-miterlimit="10" stroke-linecap="round"/>
<path d="M232.38 44.8418H206.616V45.122H232.38V44.8418Z" fill="#00844D"/>
<path d="M220.181 44.9767C220.181 45.1084 220.141 45.2372 220.067 45.3467C219.992 45.4563 219.886 45.5416 219.762 45.5921C219.638 45.6425 219.501 45.6557 219.37 45.63C219.238 45.6043 219.117 45.5408 219.022 45.4477C218.927 45.3545 218.862 45.2358 218.836 45.1066C218.81 44.9774 218.823 44.8435 218.875 44.7217C218.926 44.6 219.013 44.496 219.125 44.4228C219.236 44.3496 219.368 44.3105 219.502 44.3105C219.682 44.3111 219.854 44.3814 219.982 44.5062C220.109 44.631 220.181 44.8002 220.181 44.9767Z" fill="#00844D"/>
<path d="M212.661 19.1758V23.8014H211.352L209.609 21.2133V23.8014H208.3V19.1758H209.609L211.352 21.7922V19.1758H212.661Z" fill="#00844D"/>
<path d="M215.378 23.8496C214.9 23.8505 214.433 23.7125 214.035 23.4528C213.637 23.1931 213.326 22.8235 213.142 22.3907C212.959 21.9579 212.91 21.4814 213.002 21.0213C213.094 20.5613 213.324 20.1384 213.661 19.8062C213.998 19.474 214.428 19.2473 214.897 19.1549C215.366 19.0625 215.852 19.1084 216.294 19.287C216.736 19.4655 217.114 19.7686 217.38 20.1579C217.647 20.5472 217.789 21.0052 217.79 21.4741C217.797 21.7871 217.74 22.0982 217.621 22.3888C217.502 22.6794 217.325 22.9436 217.1 23.1654C216.875 23.3872 216.606 23.5622 216.31 23.6797C216.014 23.7973 215.697 23.8551 215.378 23.8496ZM215.378 22.6525C215.623 22.6785 215.87 22.6311 216.086 22.5164C216.302 22.4017 216.478 22.2253 216.59 22.0105C216.702 21.7957 216.744 21.5526 216.712 21.3135C216.68 21.0743 216.574 20.8504 216.41 20.6714C216.245 20.4925 216.028 20.3668 215.789 20.3112C215.55 20.2555 215.299 20.2725 215.07 20.3599C214.84 20.4472 214.644 20.6008 214.506 20.8003C214.367 20.9998 214.294 21.2358 214.296 21.477C214.276 21.6263 214.29 21.7779 214.336 21.9215C214.382 22.0651 214.459 22.1973 214.561 22.3089C214.664 22.4206 214.791 22.5091 214.932 22.5684C215.073 22.6277 215.225 22.6564 215.378 22.6525Z" fill="#00844D"/>
<path d="M220.142 19.1758C221.314 19.1758 221.905 19.8321 221.905 20.6628C221.914 20.9684 221.816 21.2677 221.628 21.5117C221.44 21.7556 221.173 21.9295 220.871 22.0048L221.935 23.8102H220.468L219.533 22.1008H219.395V23.8102H218.085V19.1856H220.142V19.1758ZM220.042 20.2474H219.392V21.2133H220.042C220.397 21.2133 220.574 21.0399 220.574 20.7304C220.578 20.6627 220.567 20.5949 220.541 20.5319C220.516 20.4689 220.476 20.4122 220.426 20.366C220.375 20.3199 220.314 20.2853 220.249 20.2647C220.183 20.2442 220.113 20.2383 220.044 20.2474H220.042Z" fill="#00844D"/>
<path d="M221.944 19.1758H225.764V20.1994H224.504V23.8014H223.184V20.1994H221.944V19.1758Z" fill="#00844D"/>
<path d="M225.941 19.1758H227.25V23.8014H225.941V19.1758Z" fill="#00844D"/>
<path d="M229.889 19.128C230.415 19.0985 230.933 19.2563 231.349 19.5722C231.765 19.8881 232.051 20.3409 232.153 20.8472H230.745C230.672 20.6832 230.55 20.5442 230.396 20.448C230.242 20.3517 230.062 20.3025 229.879 20.3065C229.28 20.3065 228.881 20.7698 228.881 21.4751C228.881 22.1804 229.274 22.6506 229.879 22.6506C230.062 22.6545 230.242 22.6053 230.396 22.509C230.55 22.4128 230.672 22.2739 230.745 22.1099H232.153C232.052 22.6168 231.767 23.0704 231.351 23.3866C230.934 23.7028 230.415 23.86 229.889 23.829C229.254 23.829 228.644 23.5813 228.194 23.1404C227.745 22.6995 227.492 22.1016 227.492 21.478C227.492 20.8545 227.745 20.2565 228.194 19.8156C228.644 19.3747 229.254 19.127 229.889 19.127V19.128Z" fill="#00844D"/>
<path d="M217.202 39.2516H211.847L211.03 41.6653H206.616L212.129 26.8433H216.973L222.456 41.6653H218.016L217.202 39.2516ZM214.525 31.3043L212.92 36.0935H216.159L214.525 31.3043Z" fill="#00844D"/>
<path d="M227.379 25.9644C230.766 25.9644 232.567 27.8373 232.567 30.1942C232.616 30.9349 232.416 31.6707 231.998 32.2896C231.581 32.9086 230.968 33.3767 230.254 33.6227V33.7099C231.034 33.9434 231.712 34.4254 232.181 35.0797C232.65 35.7339 232.883 36.5229 232.843 37.3216C232.843 39.9665 230.914 41.8023 227.616 41.8023C224.229 41.8023 221.847 40.2859 221.769 36.6261H225.863C225.824 37.7174 226.336 38.3894 227.448 38.3894C227.632 38.3965 227.816 38.3648 227.986 38.2962C228.157 38.2277 228.31 38.124 228.436 37.9921C228.562 37.8603 228.658 37.7034 228.717 37.5321C228.776 37.3608 228.796 37.1791 228.777 36.9993C228.777 35.9473 228.137 35.4448 226.552 35.4448H225.804V32.1034H226.532C227.349 32.123 228.482 31.9976 228.482 30.6938C228.482 29.8122 227.989 29.3899 227.283 29.3899C226.358 29.3899 226.085 30.1736 226.043 30.8868H221.948C222.043 27.7119 224.042 25.9644 227.379 25.9644Z" fill="#00844D"/>
<path d="M129.364 71.6014C148.962 71.6014 164.849 56.0206 164.849 36.8007C164.849 17.5808 148.962 2 129.364 2C109.767 2 93.8799 17.5808 93.8799 36.8007C93.8799 56.0206 109.767 71.6014 129.364 71.6014Z" fill="#E6E7E8"/>
<path d="M99.853 49.3522C97.3357 43.6831 96.577 37.4122 97.6717 31.3227C98.7664 25.2332 101.666 19.595 106.008 15.1123C110.351 10.6297 115.943 7.50117 122.087 6.11763C128.232 4.73408 134.655 5.15681 140.556 7.333C146.457 9.5092 151.573 13.3424 155.266 18.3539C158.959 23.3653 161.064 29.3329 161.32 35.5113C161.576 41.6896 159.97 47.8049 156.703 53.0934C153.436 58.3818 148.653 62.609 142.952 65.2469" stroke="#3875B6" stroke-width="10" stroke-miterlimit="10" stroke-linecap="round"/>
<path d="M126.015 39.3256H121.561L120.847 41.4336H117.804L122.122 29.4996H125.488L129.806 41.4336H126.729L126.015 39.3256ZM125.267 37.0816L123.788 32.7126L122.326 37.0816H125.267ZM130.73 39.1046C131.115 38.7986 131.291 38.6569 131.257 38.6796C132.367 37.7616 133.24 37.0079 133.875 36.4186C134.521 35.8293 135.065 35.2116 135.507 34.5656C135.949 33.9196 136.17 33.2906 136.17 32.6786C136.17 32.2139 136.062 31.8513 135.847 31.5906C135.631 31.3299 135.308 31.1996 134.878 31.1996C134.447 31.1996 134.107 31.3639 133.858 31.6926C133.62 32.0099 133.501 32.4633 133.501 33.0526H130.696C130.718 32.0893 130.922 31.2846 131.308 30.6386C131.704 29.9926 132.22 29.5166 132.855 29.2106C133.501 28.9046 134.215 28.7516 134.997 28.7516C136.345 28.7516 137.36 29.0973 138.04 29.7886C138.731 30.4799 139.077 31.3809 139.077 32.4916C139.077 33.7043 138.663 34.8319 137.836 35.8746C137.008 36.9059 135.954 37.9146 134.674 38.9006H139.264V41.2636H130.73V39.1046Z" fill="#3875B6"/>
<path d="M121.894 19.1758V23.8014H120.584L118.842 21.2133V23.8014H117.532V19.1758H118.842L120.584 21.7922V19.1758H121.894Z" fill="#3875B6"/>
<path d="M124.611 23.8496C124.133 23.8505 123.666 23.7125 123.268 23.4528C122.87 23.1931 122.559 22.8235 122.375 22.3907C122.192 21.9579 122.143 21.4814 122.235 21.0213C122.327 20.5613 122.556 20.1384 122.894 19.8062C123.231 19.474 123.661 19.2473 124.13 19.1549C124.599 19.0625 125.085 19.1084 125.527 19.287C125.969 19.4655 126.347 19.7686 126.613 20.1579C126.879 20.5472 127.022 21.0052 127.023 21.4741C127.03 21.7871 126.972 22.0982 126.854 22.3888C126.735 22.6794 126.558 22.9436 126.333 23.1654C126.107 23.3872 125.839 23.5622 125.543 23.6797C125.247 23.7973 124.93 23.8551 124.611 23.8496ZM124.611 22.6525C124.856 22.6785 125.103 22.6311 125.319 22.5164C125.535 22.4017 125.711 22.2253 125.823 22.0105C125.935 21.7957 125.977 21.5526 125.945 21.3135C125.913 21.0743 125.807 20.8504 125.643 20.6714C125.478 20.4925 125.261 20.3668 125.022 20.3112C124.783 20.2555 124.532 20.2725 124.303 20.3599C124.073 20.4472 123.877 20.6008 123.738 20.8003C123.6 20.9998 123.527 21.2358 123.529 21.477C123.509 21.6263 123.523 21.7779 123.569 21.9215C123.615 22.0651 123.692 22.1973 123.794 22.3089C123.897 22.4206 124.023 22.5091 124.164 22.5684C124.305 22.6277 124.458 22.6564 124.611 22.6525Z" fill="#3875B6"/>
<path d="M129.375 19.1758C130.546 19.1758 131.138 19.8321 131.138 20.6628C131.146 20.9684 131.049 21.2677 130.861 21.5117C130.673 21.7556 130.406 21.9295 130.104 22.0048L131.168 23.8102H129.7L128.766 22.1008H128.628V23.8102H127.318V19.1856H129.375V19.1758ZM129.275 20.2474H128.625V21.2133H129.275C129.63 21.2133 129.806 21.0399 129.806 20.7304C129.811 20.6627 129.8 20.5949 129.774 20.5319C129.748 20.4689 129.709 20.4122 129.658 20.366C129.608 20.3199 129.547 20.2853 129.481 20.2647C129.415 20.2442 129.346 20.2383 129.277 20.2474H129.275Z" fill="#3875B6"/>
<path d="M131.177 19.1758H134.997V20.1994H133.736V23.8014H132.417V20.1994H131.177V19.1758Z" fill="#3875B6"/>
<path d="M135.173 19.1758H136.483V23.8014H135.173V19.1758Z" fill="#3875B6"/>
<path d="M139.122 19.128C139.648 19.0985 140.166 19.2563 140.582 19.5722C140.998 19.8881 141.284 20.3409 141.386 20.8472H139.978C139.904 20.6832 139.783 20.5442 139.629 20.448C139.475 20.3517 139.295 20.3025 139.112 20.3065C138.513 20.3065 138.114 20.7698 138.114 21.4751C138.114 22.1804 138.507 22.6506 139.112 22.6506C139.295 22.6545 139.475 22.6053 139.629 22.509C139.783 22.4128 139.904 22.2739 139.978 22.1099H141.386C141.285 22.6168 141 23.0704 140.583 23.3866C140.167 23.7028 139.648 23.86 139.122 23.829C138.487 23.829 137.877 23.5813 137.427 23.1404C136.978 22.6995 136.725 22.1016 136.725 21.478C136.725 20.8545 136.978 20.2565 137.427 19.8156C137.877 19.3747 138.487 19.127 139.122 19.127V19.128Z" fill="#3875B6"/>
<path d="M141.767 44.8188H116.587V45.099H141.767V44.8188Z" fill="#3875B6"/>
<path d="M129.842 44.9639C129.842 45.0939 129.802 45.221 129.729 45.3291C129.655 45.4372 129.55 45.5215 129.428 45.5712C129.306 45.621 129.171 45.634 129.041 45.6086C128.911 45.5832 128.791 45.5207 128.698 45.4287C128.604 45.3368 128.54 45.2197 128.514 45.0922C128.488 44.9647 128.502 44.8325 128.552 44.7124C128.603 44.5923 128.689 44.4896 128.799 44.4174C128.91 44.3452 129.039 44.3066 129.172 44.3066C129.349 44.3084 129.518 44.3783 129.643 44.5011C129.769 44.624 129.84 44.7902 129.842 44.9639Z" fill="#3875B6"/>
<path d="M37.4846 72.5291C57.0822 72.5291 72.9691 56.9483 72.9691 37.7284C72.9691 18.5085 57.0822 2.92773 37.4846 2.92773C17.887 2.92773 2 18.5085 2 37.7284C2 56.9483 17.887 72.5291 37.4846 72.5291Z" fill="#E6E7E8"/>
<path d="M7.97324 49.3522C5.45595 43.6831 4.69728 37.4122 5.79198 31.3227C6.88668 25.2332 9.78623 19.595 14.1285 15.1123C18.4707 10.6297 24.0632 7.50117 30.2075 6.11763C36.3517 4.73408 42.7754 5.15681 48.6762 7.333C54.5769 9.5092 59.6932 13.3424 63.3861 18.3539C67.079 23.3653 69.1847 29.3329 69.4402 35.5113C69.6958 41.6896 68.0899 47.8049 64.8231 53.0934C61.5564 58.3818 56.7735 62.609 51.0719 65.2469" stroke="black" stroke-width="10" stroke-miterlimit="10" stroke-linecap="round"/>
<path d="M36.0285 39.3256H31.5745L30.8605 41.4336H27.8175L32.1355 29.4996H35.5015L39.8195 41.4336H36.7425L36.0285 39.3256ZM35.2805 37.0816L33.8015 32.7126L32.3395 37.0816H35.2805ZM40.5387 31.7266V29.0236H45.2477V41.4336H42.2217V31.7266H40.5387Z" fill="black"/>
<path d="M30.0139 19.1748V23.8004H28.7046L26.9619 21.2123V23.8004H25.6526V19.1748H26.9619L28.7046 21.7913V19.1748H30.0139Z" fill="black"/>
<path d="M32.7314 23.8486C32.2534 23.8496 31.7858 23.7115 31.3878 23.4518C30.9898 23.1921 30.6793 22.8225 30.4955 22.3897C30.3116 21.9569 30.2628 21.4804 30.355 21.0203C30.4473 20.5603 30.6766 20.1374 31.0139 19.8052C31.3512 19.473 31.7814 19.2464 32.25 19.1539C32.7186 19.0615 33.2047 19.1075 33.6467 19.286C34.0887 19.4645 34.4668 19.7676 34.7332 20.1569C34.9996 20.5462 35.1423 21.0043 35.1432 21.4731C35.1501 21.7861 35.0925 22.0972 34.9739 22.3878C34.8553 22.6785 34.678 22.9426 34.4528 23.1644C34.2276 23.3862 33.9591 23.5612 33.6633 23.6787C33.3675 23.7963 33.0505 23.8541 32.7314 23.8486ZM32.7314 22.6516C32.9759 22.6776 33.2226 22.6301 33.439 22.5154C33.6553 22.4008 33.8311 22.2243 33.9429 22.0095C34.0547 21.7947 34.0973 21.5516 34.0652 21.3125C34.033 21.0734 33.9275 20.8495 33.7626 20.6705C33.5978 20.4915 33.3814 20.3658 33.1421 20.3102C32.9028 20.2546 32.652 20.2715 32.4227 20.3589C32.1935 20.4463 31.9968 20.5999 31.8586 20.7994C31.7204 20.9989 31.6472 21.2349 31.6488 21.4761C31.6293 21.6253 31.643 21.7769 31.6888 21.9205C31.7347 22.0641 31.8117 22.1963 31.9145 22.308C32.0174 22.4196 32.1436 22.5082 32.2846 22.5675C32.4256 22.6268 32.578 22.6555 32.7314 22.6516Z" fill="black"/>
<path d="M37.4952 19.1748C38.6666 19.1748 39.2578 19.8311 39.2578 20.6618C39.2665 20.9674 39.1689 21.2668 38.9811 21.5107C38.7932 21.7546 38.5263 21.9285 38.2242 22.0038L39.2878 23.8092H37.8207L36.886 22.0998H36.7481V23.8092H35.4379V19.1846H37.4952V19.1748ZM37.3953 20.2465H36.7451V21.2123H37.3953C37.7498 21.2123 37.9266 21.0389 37.9266 20.7294C37.9309 20.6617 37.9199 20.5939 37.8942 20.5309C37.8686 20.4679 37.8291 20.4113 37.7785 20.3651C37.7278 20.3189 37.6674 20.2843 37.6014 20.2638C37.5355 20.2433 37.4658 20.2373 37.3973 20.2465H37.3953Z" fill="black"/>
<path d="M39.2968 19.1748H43.1168V20.1985H41.8564V23.8004H40.5371V20.1985H39.2968V19.1748Z" fill="black"/>
<path d="M43.2935 19.1748H44.6027V23.8004H43.2935V19.1748Z" fill="black"/>
<path d="M47.2424 19.127C47.7678 19.0975 48.2862 19.2553 48.7023 19.5712C49.1184 19.8872 49.404 20.34 49.5065 20.8462H48.0983C48.0247 20.6822 47.9031 20.5433 47.749 20.447C47.5949 20.3508 47.4151 20.3015 47.2324 20.3055C46.6332 20.3055 46.2337 20.7688 46.2337 21.4741C46.2337 22.1794 46.6272 22.6496 47.2324 22.6496C47.4151 22.6536 47.5949 22.6043 47.749 22.5081C47.9031 22.4118 48.0247 22.2729 48.0983 22.1089H49.5065C49.4053 22.6158 49.1201 23.0694 48.7037 23.3856C48.2873 23.7018 47.7681 23.859 47.2424 23.8281C46.6068 23.8281 45.9971 23.5804 45.5476 23.1395C45.0981 22.6986 44.8456 22.1006 44.8456 21.4771C44.8456 20.8535 45.0981 20.2555 45.5476 19.8146C45.9971 19.3737 46.6068 19.126 47.2424 19.126V19.127Z" fill="black"/>
<path d="M49.8877 44.8179H24.7076V45.098H49.8877V44.8179Z" fill="black"/>
<path d="M37.9619 44.963C37.9619 45.093 37.9227 45.2201 37.849 45.3281C37.7754 45.4362 37.6707 45.5205 37.5483 45.5702C37.4258 45.62 37.2911 45.633 37.1611 45.6076C37.0311 45.5823 36.9117 45.5197 36.818 45.4278C36.7243 45.3358 36.6604 45.2187 36.6346 45.0912C36.6087 44.9637 36.622 44.8315 36.6727 44.7114C36.7235 44.5913 36.8093 44.4886 36.9195 44.4164C37.0297 44.3442 37.1593 44.3057 37.2918 44.3057C37.469 44.3074 37.6384 44.3773 37.7637 44.5002C37.889 44.623 37.9601 44.7892 37.9619 44.963Z" fill="black"/>
</svg>
