<svg width="59" height="25" viewBox="0 0 59 25" fill="none" xmlns="http://www.w3.org/2000/svg">
<path d="M3.82143 17.4262C2.87341 16.9038 2.09266 16.1238 1.56945 15.1762C1.00955 14.1466 0.727597 12.9889 0.751424 11.8172C0.727022 10.6425 1.01668 9.48257 1.59044 8.45721C2.12963 7.50683 2.92478 6.72687 3.88543 6.20618C4.88806 5.68386 6.00191 5.41113 7.13244 5.41113C8.26296 5.41113 9.37681 5.68386 10.3794 6.20618C11.3418 6.7258 12.1388 7.50544 12.6794 8.45618C13.2537 9.48104 13.544 10.6406 13.5204 11.8152C13.5444 12.9923 13.2467 14.1537 12.6594 15.1742C12.1055 16.1252 11.2995 16.9045 10.3304 17.4262C9.32205 17.9652 8.19373 18.2404 7.05044 18.2262C5.92315 18.2422 4.81087 17.9666 3.82143 17.4262ZM8.64544 15.0732C9.15816 14.7844 9.57528 14.352 9.84545 13.8292C10.16 13.2053 10.3137 12.5126 10.2924 11.8142C10.3249 11.3217 10.2594 10.8276 10.0998 10.3606C9.94015 9.89356 9.68956 9.4628 9.36245 9.0932C9.07033 8.78561 8.71737 8.54221 8.32604 8.37848C7.93471 8.21475 7.51356 8.13429 7.08944 8.14221C6.66831 8.13315 6.25004 8.21324 5.86208 8.37732C5.47413 8.54139 5.12526 8.7857 4.83843 9.09418C4.19238 9.84828 3.86717 10.8254 3.93242 11.8162C3.86686 12.8029 4.1838 13.777 4.81743 14.5362C5.09873 14.8457 5.44348 15.0908 5.82815 15.2549C6.21281 15.4191 6.62837 15.4983 7.04644 15.4872C7.60612 15.4886 8.15676 15.346 8.64544 15.0732Z" fill="#231F20"/>
<path d="M23.1599 5.90786C23.821 6.2385 24.3904 6.72688 24.8179 7.32986V5.41286H27.9759V17.6348C27.9937 18.8406 27.7572 20.0366 27.2819 21.1449C26.8163 22.0522 26.0916 22.8009 25.1999 23.2959C24.1699 23.8529 23.0114 24.1288 21.8409 24.0958C20.3016 24.1612 18.7821 23.7296 17.5069 22.8648C16.9614 22.4793 16.5072 21.9788 16.1763 21.3986C15.8455 20.8184 15.6459 20.1726 15.5919 19.5069H18.7049C18.8718 20.0785 19.253 20.5635 19.7689 20.8609C20.3695 21.2103 21.0564 21.3836 21.7509 21.3609C22.1562 21.3776 22.5608 21.3138 22.9414 21.1732C23.3219 21.0327 23.6708 20.8181 23.9679 20.5418C24.5821 19.7026 24.8828 18.6748 24.8179 17.6369V16.1369C24.3839 16.7465 23.8125 17.2453 23.1499 17.5929C22.403 17.9905 21.567 18.1911 20.7209 18.1759C19.7087 18.1868 18.7142 17.9093 17.8539 17.3759C16.9736 16.8223 16.264 16.0355 15.8039 15.1029C15.2877 14.0557 15.0302 12.9001 15.0529 11.7329C15.0303 10.5765 15.2873 9.43167 15.8019 8.39584C16.2582 7.47317 16.9644 6.69709 17.8399 6.15584C18.7068 5.6307 19.7034 5.3588 20.7169 5.37087C21.5628 5.34908 22.4012 5.53336 23.1599 5.90786ZM24.3709 9.80782C24.0932 9.28461 23.6739 8.8501 23.1609 8.55386C22.6644 8.26558 22.1 8.1151 21.5259 8.11788C20.9602 8.11349 20.4036 8.26055 19.9139 8.54385C19.4075 8.84032 18.9923 9.2703 18.7139 9.78683C18.3959 10.3819 18.2378 11.0493 18.2549 11.7238C18.2401 12.4055 18.3984 13.0799 18.7149 13.6839C18.9938 14.2148 19.4121 14.6598 19.9249 14.9708C20.407 15.2642 20.9606 15.4189 21.5249 15.4179C22.099 15.4198 22.6633 15.2689 23.1599 14.9809C23.6723 14.6843 24.0912 14.2497 24.3689 13.7268C24.6634 13.1156 24.8164 12.4459 24.8164 11.7674C24.8164 11.0889 24.6634 10.4191 24.3689 9.80782H24.3709Z" fill="#231F20"/>
<path d="M35.0669 8.17908V14.1791C35.0511 14.3427 35.0696 14.5078 35.1213 14.6638C35.1729 14.8198 35.2566 14.9633 35.3669 15.0851C35.6606 15.3005 36.0234 15.4001 36.3859 15.3651H37.8449V18.0071H35.8749C33.2315 18.0071 31.9099 16.7234 31.9099 14.1561V8.17706H30.2019V5.4541H31.9099V2.3291H35.0679V5.4541H37.8449V8.17706L35.0669 8.17908Z" fill="#231F20"/>
<path d="M43.8541 5.45306V18.0081H40.7181V5.4541L43.8541 5.45306ZM43.8541 3.88507V0.746094H40.7161V3.88409L43.8541 3.88507Z" fill="#231F20"/>
<path d="M47.077 8.43317C47.5974 7.48917 48.3753 6.71239 49.3199 6.19318C50.3272 5.64837 51.458 5.37283 52.603 5.39319C54.0073 5.33787 55.3914 5.74232 56.545 6.54517C57.6039 7.34207 58.3459 8.48872 58.639 9.78119H55.145C54.9786 9.26855 54.6496 8.82412 54.2079 8.5152C53.7253 8.19719 53.1556 8.03713 52.5779 8.05719C52.1608 8.03853 51.7451 8.11689 51.3633 8.28607C50.9816 8.45525 50.6443 8.71061 50.3779 9.03217C49.8498 9.85379 49.569 10.8099 49.569 11.7867C49.569 12.7634 49.8498 13.7196 50.3779 14.5412C50.6447 14.8621 50.9822 15.1169 51.3638 15.2857C51.7455 15.4545 52.161 15.5327 52.5779 15.5142C53.1355 15.5665 53.6941 15.4263 54.1609 15.117C54.6278 14.8077 54.9747 14.348 55.144 13.8142H58.636C58.3246 15.0905 57.583 16.2206 56.5359 17.0142C55.3935 17.835 54.0108 18.2528 52.605 18.2022C51.4606 18.2237 50.33 17.9503 49.322 17.4082C48.3773 16.8894 47.5995 16.1129 47.079 15.1692C46.5469 14.1253 46.2695 12.9703 46.2695 11.7987C46.2695 10.6271 46.5469 9.47208 47.079 8.42822L47.077 8.43317Z" fill="#231F20"/>
</svg>
