<svg width="16" height="17" viewBox="0 0 16 17" fill="none" xmlns="http://www.w3.org/2000/svg">
<path d="M8 0.275024C5.88633 0.300638 3.86653 1.14118 2.37183 2.6172C0.87712 4.09322 0.0259376 6.08777 0 8.17502C0.0098791 9.39077 0.303776 10.5879 0.858809 11.6731C1.41384 12.7583 2.21503 13.7024 3.2 14.4318V14.495H3.28C4.63448 15.5202 6.29344 16.0758 8 16.0758C9.70656 16.0758 11.3655 15.5202 12.72 14.495H12.8V14.4318C13.785 13.7024 14.5862 12.7583 15.1412 11.6731C15.6962 10.5879 15.9901 9.39077 16 8.17502C15.9741 6.08777 15.1229 4.09322 13.6282 2.6172C12.1335 1.14118 10.1137 0.300638 8 0.275024M4.856 13.6497C4.97279 13.1216 5.26892 12.6487 5.69527 12.3096C6.12161 11.9705 6.65255 11.7855 7.2 11.7853H8.8C9.34745 11.7855 9.87839 11.9705 10.3047 12.3096C10.7311 12.6487 11.0272 13.1216 11.144 13.6497C10.1911 14.2034 9.1056 14.4953 8 14.4953C6.8944 14.4953 5.80891 14.2034 4.856 13.6497ZM12.488 12.6306C12.1837 11.9125 11.6713 11.2991 11.0151 10.8676C10.359 10.4361 9.58834 10.2057 8.8 10.2053H7.2C6.41166 10.2057 5.64102 10.4361 4.98486 10.8676C4.32871 11.2991 3.8163 11.9125 3.512 12.6306C2.91253 12.0484 2.43512 11.3552 2.10705 10.5907C1.77898 9.82618 1.60668 9.00532 1.6 8.17502C1.62075 6.50522 2.3017 4.90958 3.49746 3.72877C4.69322 2.54795 6.30906 1.87552 8 1.85502C9.69094 1.87552 11.3068 2.54795 12.5025 3.72877C13.6983 4.90958 14.3792 6.50522 14.4 8.17502C14.3933 9.00532 14.221 9.82618 13.8929 10.5907C13.5649 11.3552 13.0875 12.0484 12.488 12.6306Z" fill="#003670"/>
<path d="M7.99968 3.43596C7.17036 3.41688 6.36732 3.72389 5.76722 4.28946C5.16711 4.85503 4.81908 5.63283 4.79968 6.45178C4.79968 6.50017 4.79968 6.55053 4.79968 6.59596C4.78036 7.41491 5.09125 8.20791 5.66398 8.80051C6.23671 9.39312 7.02436 9.7368 7.85368 9.75596H7.99968C8.829 9.77504 9.63203 9.46803 10.2321 8.90246C10.8322 8.33689 11.1803 7.55909 11.1997 6.74013C11.1997 6.69175 11.1997 6.64138 11.1997 6.59596C11.2092 6.19037 11.1378 5.7869 10.9894 5.40858C10.8411 5.03026 10.6187 4.6845 10.335 4.39106C10.0513 4.09762 9.71188 3.86224 9.33606 3.69836C8.96023 3.53448 8.5554 3.44532 8.14468 3.43596H7.99968ZM7.99968 8.17596C7.79921 8.18553 7.59879 8.156 7.40988 8.08906C7.22097 8.02213 7.04726 7.91909 6.89868 7.78585C6.7501 7.65261 6.62955 7.49176 6.54393 7.3125C6.45831 7.13325 6.4093 6.93909 6.39968 6.74112C6.39968 6.69273 6.39968 6.64237 6.39968 6.59596C6.38999 6.39799 6.41989 6.20008 6.48767 6.01353C6.55546 5.82698 6.65979 5.65544 6.79472 5.50872C6.92965 5.362 7.09253 5.24296 7.27406 5.15841C7.45559 5.07386 7.6522 5.02546 7.85268 5.01596C7.90168 5.01596 7.95268 5.01596 7.99968 5.01596C8.20015 5.00639 8.40056 5.03592 8.58948 5.10286C8.77839 5.16979 8.9521 5.27282 9.10068 5.40607C9.24926 5.53931 9.3698 5.70015 9.45542 5.87941C9.54104 6.05867 9.59006 6.25283 9.59968 6.4508C9.59968 6.49918 9.59968 6.54955 9.59968 6.59596C9.60937 6.79392 9.57946 6.99183 9.51168 7.17839C9.4439 7.36494 9.33956 7.53647 9.20463 7.6832C9.0697 7.82992 8.90682 7.94896 8.72529 8.03351C8.54377 8.11806 8.34715 8.16646 8.14668 8.17596C8.09768 8.17596 8.04668 8.17596 7.99968 8.17596Z" fill="#003670"/>
</svg>
