<svg width="10" height="19" viewBox="0 0 10 19" fill="none" xmlns="http://www.w3.org/2000/svg">
<path d="M6.98355 9.81135L0.366494 2.94026C0.13154 2.69528 2.55062e-10 2.36638 2.01663e-10 2.02388C1.4826e-10 1.68138 0.13154 1.35248 0.366494 1.1075C0.48218 0.988071 0.620002 0.893243 0.771956 0.828521C0.923911 0.763798 1.08697 0.730469 1.25167 0.730469C1.41637 0.730469 1.57944 0.763798 1.73139 0.828521C1.88335 0.893243 2.02117 0.988071 2.13685 1.1075L9.63513 8.88842C9.86261 9.12647 9.99292 9.4436 9.99972 9.77575C10.0065 10.1079 9.88931 10.4303 9.67177 10.6778L2.14675 18.5132C2.03127 18.633 1.89352 18.7281 1.74154 18.7931C1.58955 18.8581 1.42639 18.8915 1.26157 18.8915C1.09676 18.8915 0.933596 18.8581 0.781613 18.7931C0.629631 18.7281 0.491876 18.633 0.376395 18.5132C0.141442 18.2682 0.00990156 17.9393 0.00990156 17.5968C0.00990156 17.2543 0.141442 16.9254 0.376395 16.6804L6.98355 9.81135Z" fill="#113972"/>
</svg>
