<svg width="21" height="21" viewBox="0 0 21 21" fill="none" xmlns="http://www.w3.org/2000/svg">
<path d="M20.0131 17.3749L16.1181 13.5325C16.0308 13.4467 15.9273 13.3787 15.8133 13.3324C15.6994 13.2862 15.5773 13.2625 15.4541 13.2629H14.8181C16.09 11.6535 16.6923 9.62557 16.5023 7.59271C16.3122 5.55985 15.3441 3.67512 13.7954 2.32282C12.2466 0.97052 10.2339 0.252483 8.1675 0.315119C6.10113 0.377755 4.13676 1.21635 2.67493 2.65991C1.21309 4.10347 0.363887 6.04328 0.300457 8.08382C0.237028 10.1244 0.964154 12.112 2.33357 13.6413C3.70299 15.1707 5.61158 16.1267 7.67017 16.3144C9.72876 16.5021 11.7823 15.9073 13.4121 14.6513V15.2804C13.4118 15.402 13.4357 15.5226 13.4825 15.6351C13.5294 15.7476 13.5982 15.8499 13.6851 15.9361L17.5791 19.7814C17.6659 19.8675 17.7691 19.9358 17.8827 19.9825C17.9963 20.0291 18.1181 20.0531 18.2411 20.0531C18.3642 20.0531 18.486 20.0291 18.5996 19.9825C18.7132 19.9358 18.8164 19.8675 18.9031 19.7814L20.0081 18.6902C20.1854 18.5164 20.2855 18.2802 20.2865 18.0336C20.2874 17.7869 20.1891 17.55 20.0131 17.3749ZM8.41314 13.259C7.42424 13.259 6.45754 12.9694 5.63529 12.4268C4.81305 11.8843 4.17218 11.1132 3.79374 10.211C3.41531 9.30875 3.31629 8.31598 3.50922 7.3582C3.70214 6.40042 4.17835 5.52064 4.87761 4.83012C5.57687 4.1396 6.46779 3.66935 7.43769 3.47883C8.4076 3.28832 9.41293 3.3861 10.3266 3.7598C11.2402 4.13351 12.0211 4.76636 12.5705 5.57833C13.1199 6.3903 13.4131 7.34491 13.4131 8.32146C13.4133 8.97003 13.284 9.61226 13.0327 10.2115C12.7815 10.8107 12.4131 11.3552 11.9487 11.8138C11.4843 12.2724 10.9329 12.6362 10.3261 12.8843C9.71929 13.1324 9.06892 13.2601 8.41214 13.2599L8.41314 13.259Z" fill="white"/>
</svg>
