<svg width="21" height="17" viewBox="0 0 21 17" fill="none" xmlns="http://www.w3.org/2000/svg">
<path d="M20.25 2.20603C19.4969 2.5295 18.7016 2.74431 17.888 2.84403C18.7427 2.34671 19.3845 1.55221 19.691 0.612033C18.8856 1.08191 18.0065 1.41224 17.091 1.58903C16.704 1.18476 16.2391 0.863161 15.7243 0.643671C15.2096 0.424181 14.6556 0.311362 14.096 0.312033C13.4843 0.310036 12.8801 0.445522 12.3278 0.708475C11.7756 0.971429 11.2895 1.35513 10.9054 1.83121C10.5214 2.3073 10.2493 2.8636 10.1092 3.45899C9.9691 4.05439 9.96458 4.67366 10.096 5.27103C8.47041 5.19563 6.87857 4.78096 5.4228 4.05368C3.96702 3.32639 2.67951 2.30258 1.643 1.04803C1.11453 1.93651 0.950557 2.99507 1.18546 4.00179C1.42036 5.00851 2.03589 5.8852 2.903 6.44803C2.25431 6.42971 1.61923 6.25766 1.05 5.94603V5.99003C1.05628 6.92873 1.38669 7.83642 1.98531 8.5595C2.58392 9.28258 3.41398 9.77663 4.335 9.95803C3.98401 10.0491 3.6226 10.0938 3.26 10.091C2.99962 10.0956 2.7395 10.0724 2.484 10.022C2.75552 10.828 3.26916 11.5306 3.95479 12.0339C4.64043 12.5372 5.46467 12.8166 6.315 12.834C4.85708 13.9539 3.06936 14.5594 1.231 14.556C0.903148 14.558 0.575498 14.5393 0.25 14.5C2.13096 15.6915 4.31344 16.3202 6.54 16.312C8.06344 16.3346 9.57616 16.0541 10.9903 15.487C12.4044 14.92 13.6918 14.0775 14.7776 13.0087C15.8634 11.9398 16.7259 10.6659 17.3152 9.26082C17.9044 7.85577 18.2086 6.34764 18.21 4.82403C18.21 4.64603 18.204 4.47303 18.195 4.30203C19.0018 3.73416 19.6982 3.02387 20.25 2.20603Z" fill="#003579"/>
</svg>
