<svg width="17" height="17" viewBox="0 0 17 17" fill="none" xmlns="http://www.w3.org/2000/svg">
<path d="M11.886 16.312H4.614C3.457 16.3107 2.34777 15.8505 1.52965 15.0324C0.711525 14.2142 0.251323 13.105 0.25 11.948L0.25 4.67601C0.251323 3.51901 0.711525 2.40978 1.52965 1.59166C2.34777 0.773537 3.457 0.313335 4.614 0.312012L11.887 0.312012C13.0438 0.3136 14.1528 0.773919 14.9707 1.59201C15.7886 2.41011 16.2487 3.51919 16.25 4.67601V11.949C16.2484 13.1058 15.7881 14.2148 14.97 15.0327C14.1519 15.8506 13.0428 16.3107 11.886 16.312ZM8.28 4.64401C7.32598 4.65983 6.41639 5.04992 5.74732 5.73017C5.07826 6.41043 4.70331 7.32636 4.70331 8.28051C4.70331 9.23466 5.07826 10.1506 5.74732 10.8308C6.41639 11.5111 7.32598 11.9012 8.28 11.917C8.80301 11.9175 9.31997 11.8052 9.79562 11.5877C10.2713 11.3702 10.6944 11.0527 11.0361 10.6567C11.3778 10.2608 11.6301 9.79581 11.7758 9.29348C11.9214 8.79116 11.957 8.26333 11.88 7.74601C11.7505 6.88388 11.3159 6.09685 10.6553 5.52798C9.99463 4.9591 9.15181 4.64615 8.28 4.64601V4.64401ZM8.28 10.463C7.7013 10.463 7.1463 10.2331 6.73709 9.82392C6.32789 9.41471 6.098 8.85971 6.098 8.28101C6.098 7.70231 6.32789 7.14731 6.73709 6.7381C7.1463 6.3289 7.7013 6.09901 8.28 6.09901C8.38743 6.09849 8.49474 6.10618 8.601 6.12201C9.0594 6.19012 9.48421 6.40241 9.81388 6.72813C10.1435 7.05384 10.3609 7.47605 10.4346 7.9336C10.5082 8.39114 10.4343 8.86025 10.2235 9.27295C10.0126 9.68565 9.67588 10.0205 9.262 10.229C8.95792 10.382 8.6224 10.4621 8.282 10.463H8.28Z" fill="#003579"/>
</svg>
