<svg width="177" height="144" viewBox="0 0 177 144" fill="none" xmlns="http://www.w3.org/2000/svg">
<path d="M125 118L127.427 118.599L125 118ZM175.983 45.0218C176.824 43.9264 176.617 42.357 175.522 41.5166L157.671 27.8202C156.575 26.9797 155.006 27.1864 154.166 28.2818C153.325 29.3772 153.532 30.9466 154.627 31.7871L170.495 43.9616L158.32 59.8292C157.48 60.9247 157.686 62.494 158.782 63.3345C159.877 64.175 161.447 63.9683 162.287 62.8729L175.983 45.0218ZM0.283178 4.89503C1.84643 5.3629 3.45884 5.86277 5.11489 6.39417L6.64258 1.63327C4.95615 1.09212 3.31238 0.582513 1.71682 0.104971L0.283178 4.89503ZM14.7229 9.66564C17.8005 10.7719 20.9745 11.9675 24.2171 13.2498L26.0559 8.60025C22.7642 7.29842 19.541 6.08431 16.4143 4.96039L14.7229 9.66564ZM33.5968 17.1274C36.6576 18.4483 39.7529 19.8395 42.8617 21.2991L44.9866 16.7731C41.8286 15.2904 38.6853 13.8777 35.578 12.5367L33.5968 17.1274ZM51.9821 25.7658C54.9786 27.2965 57.9678 28.8883 60.9307 30.5395L63.3647 26.1719C60.3464 24.4899 57.304 22.8698 54.2566 21.3131L51.9821 25.7658ZM69.685 35.6467C72.5759 37.4136 75.4209 39.2373 78.2014 41.1161L81.0008 36.9732C78.1532 35.0491 75.244 33.1843 72.2925 31.3805L69.685 35.6467ZM86.4251 46.9868C89.1363 49.0357 91.7576 51.1399 94.2692 53.2973L97.5272 49.5044C94.9305 47.2739 92.2274 45.1045 89.4396 42.9977L86.4251 46.9868ZM101.65 60.122C104.057 62.5284 106.313 64.99 108.398 67.5039L112.247 64.3124C110.055 61.6685 107.692 59.0926 105.186 56.5865L101.65 60.122ZM114.304 75.4941C116.137 78.3149 117.741 81.1896 119.089 84.1152L123.63 82.0227C122.172 78.8593 120.449 75.774 118.496 72.7695L114.304 75.4941ZM122.412 93.3131C123.237 96.4564 123.759 99.6554 123.947 102.909L128.938 102.62C128.73 99.0214 128.154 95.4942 127.249 92.0444L122.412 93.3131ZM123.515 112.61C123.283 114.193 122.97 115.79 122.573 117.401L127.427 118.599C127.863 116.833 128.206 115.078 128.462 113.335L123.515 112.61ZM122.573 117.401C122.164 119.058 121.683 120.6 121.137 122.034L125.81 123.813C126.432 122.179 126.973 120.441 127.427 118.599L122.573 117.401ZM116.556 130.154C114.515 132.662 112.149 134.575 109.561 135.967L111.929 140.37C115.093 138.668 117.975 136.333 120.435 133.309L116.556 130.154ZM100.789 138.715C97.759 139.104 94.5797 139.022 91.3649 138.511L90.5807 143.449C94.212 144.026 97.8723 144.131 101.426 143.675L100.789 138.715ZM82.1383 135.907C79.1734 134.702 76.3036 133.171 73.6309 131.367L70.8335 135.511C73.7915 137.508 76.9678 139.203 80.2561 140.539L82.1383 135.907ZM66.2881 125.171C64.0548 122.811 62.1544 120.238 60.6835 117.516L56.2846 119.893C57.9837 123.037 60.1525 125.962 62.6569 128.608L66.2881 125.171ZM57.6136 108.736C57.1196 105.763 57.1497 102.685 57.8107 99.5474L52.9181 98.5166C52.1247 102.282 52.0886 105.989 52.6812 109.556L57.6136 108.736ZM61.2355 90.9165C62.7025 88.428 64.6204 85.9077 67.0563 83.3863L63.4603 79.9122C60.7788 82.6878 58.6139 85.5179 56.9283 88.3772L61.2355 90.9165ZM74.3814 77.0116C76.8256 75.1924 79.5705 73.3898 82.6393 71.6162L80.1373 67.2872C76.9169 69.1484 74.0088 71.056 71.3961 73.0006L74.3814 77.0116ZM91.4483 67.0383C94.298 65.7018 97.3548 64.3906 100.629 63.1105L98.8087 58.4537C95.4391 59.771 92.2809 61.1252 89.3252 62.5115L91.4483 67.0383ZM110.128 59.6934C113.192 58.6785 116.412 57.689 119.794 56.7282L118.427 51.9185C114.98 52.8979 111.691 53.9084 108.556 54.9471L110.128 59.6934ZM129.392 54.1888C132.578 53.4041 135.89 52.6431 139.33 51.9079L138.285 47.0183C134.797 47.7639 131.435 48.5363 128.197 49.3338L129.392 54.1888ZM149.154 49.9454C152.376 49.3446 155.699 48.765 159.125 48.2079L158.323 43.2727C154.86 43.8358 151.499 44.422 148.238 45.0302L149.154 49.9454ZM169.118 46.6901C170.831 46.4476 172.567 46.2104 174.326 45.9786L173.674 41.0214C171.898 41.2552 170.146 41.4947 168.417 41.7395L169.118 46.6901Z" fill="white" fill-opacity="0.48"/>
</svg>
