<svg width="531" height="89" viewBox="0 0 531 89" fill="none" xmlns="http://www.w3.org/2000/svg">
<path d="M529.208 65.79C530.029 65.6748 530.601 64.9165 530.485 64.0961L528.609 50.7271C528.494 49.9067 527.736 49.3349 526.916 49.45C526.095 49.5652 525.523 50.3235 525.639 51.1439L527.306 63.0275L515.423 64.695C514.602 64.8102 514.03 65.5685 514.146 66.3889C514.261 67.2093 515.019 67.781 515.839 67.6659L529.208 65.79ZM25.9141 26.4307L25.4278 25.0117L25.9141 26.4307ZM462.964 3.05245C463.07 2.23082 462.49 1.47889 461.669 1.37296C460.847 1.26703 460.095 1.84722 459.989 2.66884L462.964 3.05245ZM529.903 63.1068C505.976 45.0686 469.714 31.2287 427.11 21.2036C384.474 11.1707 335.347 4.92703 285.577 2.16432C186.089 -3.35821 83.7719 5.01593 25.4278 25.0117L26.4004 27.8497C84.2064 8.03829 186.072 -0.354523 285.411 5.15971C335.054 7.91539 384 14.141 426.423 24.1238C468.88 34.1144 504.664 47.8365 528.097 65.5023L529.903 63.1068ZM25.4278 25.0117C16.2937 28.1422 9.78151 31.392 5.72264 34.7579C1.648 38.1368 -0.208835 41.8781 0.742287 45.8289C1.64667 49.5854 4.99413 52.9831 9.83652 56.0615C14.7413 59.1795 21.4767 62.1563 29.6835 64.9548C62.4923 76.1425 119.938 84.8468 182.379 87.5909C244.836 90.3357 312.48 87.1257 365.696 74.385C392.299 68.0159 415.395 59.2426 432.443 47.567C449.51 35.8793 460.625 21.2004 462.964 3.05245L459.989 2.66884C457.792 19.7122 447.356 33.7184 430.748 45.0918C414.123 56.4773 391.422 65.1411 364.997 71.4675C312.159 84.1178 244.824 87.3323 182.51 84.5938C120.18 81.8545 63.064 73.1678 30.6518 62.1154C22.5533 59.3538 16.0673 56.4676 11.446 53.5297C6.76219 50.5522 4.27876 47.7012 3.65896 45.1267C3.08589 42.7463 4.01159 40.074 7.63762 37.0672C11.2794 34.0472 17.3861 30.9391 26.4004 27.8497L25.4278 25.0117Z" fill="#FFC000"/>
</svg>
