<svg width="23" height="17" viewBox="0 0 23 17" fill="none" xmlns="http://www.w3.org/2000/svg">
<path d="M22.2883 2.81201C22.1591 2.3284 21.9051 1.8872 21.5519 1.53253C21.1986 1.17787 20.7584 0.922163 20.2753 0.791008C18.5023 0.312008 11.3863 0.312012 11.3863 0.312012C11.3863 0.312012 4.27033 0.312008 2.49533 0.791008C2.01261 0.922468 1.57283 1.17831 1.21994 1.53295C0.867045 1.8876 0.613397 2.32864 0.484333 2.81201C-0.149726 6.46 -0.149726 10.19 0.484333 13.838C0.613877 14.3183 0.86828 14.7557 1.22168 15.1057C1.57508 15.4558 2.01486 15.706 2.49633 15.831C4.27533 16.312 11.3863 16.312 11.3863 16.312C11.3863 16.312 18.5023 16.312 20.2773 15.833C20.7588 15.708 21.1986 15.4578 21.552 15.1077C21.9054 14.7577 22.1598 14.3203 22.2893 13.84C22.9234 10.192 22.9234 6.462 22.2893 2.81401L22.2883 2.81201ZM9.05833 11.712V4.94501L15.0063 8.32901L9.05933 11.712H9.05833Z" fill="#003579"/>
</svg>
